<svg width="15" height="15" viewBox="0 0 15 15" fill="none" xmlns="http://www.w3.org/2000/svg">
<path d="M12.6292 1.17065H2.27271V4.14299H12.6292V1.17065Z" stroke="#211E1E" stroke-width="0.5" stroke-miterlimit="10" stroke-linecap="round" stroke-linejoin="round"/>
<path d="M12.6292 4.14331H2.27271V13.829H12.6292V4.14331Z" stroke="#211E1E" stroke-width="0.5" stroke-miterlimit="10" stroke-linecap="round" stroke-linejoin="round"/>
<path d="M3.82764 6.927H5.93162" stroke="#211E1E" stroke-width="0.5" stroke-miterlimit="10" stroke-linecap="round" stroke-linejoin="round"/>
<path d="M9.03955 6.927H11.3041" stroke="#211E1E" stroke-width="0.5" stroke-miterlimit="10" stroke-linecap="round" stroke-linejoin="round"/>
<path d="M4.04053 11.5745H5.71858" stroke="#211E1E" stroke-width="0.5" stroke-miterlimit="10" stroke-linecap="round" stroke-linejoin="round"/>
<path d="M4.87964 5.875V7.97898" stroke="#211E1E" stroke-width="0.5" stroke-miterlimit="10" stroke-linecap="round" stroke-linejoin="round"/>
<path d="M9.47168 10.7383L11.1435 12.4105" stroke="#211E1E" stroke-width="0.5" stroke-miterlimit="10" stroke-linecap="round" stroke-linejoin="round"/>
<path d="M11.1435 10.7383L9.47168 12.4105" stroke="#211E1E" stroke-width="0.5" stroke-miterlimit="10" stroke-linecap="round" stroke-linejoin="round"/>
<path d="M4.87944 11.0499C5.05151 11.0499 5.191 10.9104 5.191 10.7383C5.191 10.5662 5.05151 10.4268 4.87944 10.4268C4.70736 10.4268 4.56787 10.5662 4.56787 10.7383C4.56787 10.9104 4.70736 11.0499 4.87944 11.0499Z" fill="#211E1E"/>
<path d="M4.87944 12.7352C5.05151 12.7352 5.191 12.5957 5.191 12.4236C5.191 12.2516 5.05151 12.1121 4.87944 12.1121C4.70736 12.1121 4.56787 12.2516 4.56787 12.4236C4.56787 12.5957 4.70736 12.7352 4.87944 12.7352Z" fill="#211E1E"/>
<path d="M7.45093 13.829V4.14331" stroke="#211E1E" stroke-width="0.5" stroke-miterlimit="10" stroke-linecap="round" stroke-linejoin="round"/>
<path d="M2.27271 9.30493H12.6292" stroke="#211E1E" stroke-width="0.5" stroke-miterlimit="10" stroke-linecap="round" stroke-linejoin="round"/>
</svg>
