<svg width="63" height="53" viewBox="0 0 63 53" fill="none" xmlns="http://www.w3.org/2000/svg">
<path fill-rule="evenodd" clip-rule="evenodd" d="M23.4611 0.0229492C23.0113 0.0229492 22.6464 0.330134 22.6464 0.708758V2.53758H22.3748C21.925 2.53758 21.5601 2.84476 21.5601 3.22339V5.96662H21.4243C20.9745 5.96662 20.6096 6.27381 20.6096 6.65243V12.3675C20.6096 12.7461 20.9745 13.0533 21.4243 13.0533H25.498C25.9478 13.0533 26.3127 12.7461 26.3127 12.3675V6.65243C26.3127 6.27381 25.9478 5.96662 25.498 5.96662H25.3622V3.22339C25.3622 2.84476 24.9972 2.53758 24.5474 2.53758H24.2759V0.708758C24.2759 0.330134 23.9109 0.0229492 23.4611 0.0229492ZM24.6832 7.33824V11.6817H22.239V7.33824H22.3748C22.8246 7.33824 23.1896 7.03105 23.1896 6.65243V3.9092H23.7327V6.65243C23.7327 7.03105 24.0977 7.33824 24.5474 7.33824H24.6832ZM45.6252 17.1678V35.456C45.6231 37.0964 44.0435 38.4261 42.0947 38.4278H20.3686C18.4199 38.4261 16.8403 37.0964 16.8381 35.456V17.1678C16.8403 15.5274 18.4199 14.1977 20.3686 14.1959H42.0947C44.0435 14.1977 45.6231 15.5274 45.6252 17.1678ZM42.0947 37.0562C43.1444 37.0553 43.9947 36.3396 43.9957 35.456V17.1678C43.9947 16.2842 43.1444 15.5685 42.0947 15.5676H20.3686C19.3189 15.5685 18.4687 16.2842 18.4676 17.1678V35.456C18.4687 36.3396 19.3189 37.0553 20.3686 37.0562H42.0947ZM21.4243 17.3715H41.0383C41.4881 17.3715 41.853 17.6787 41.853 18.0573V34.5678C41.853 34.9464 41.4881 35.2536 41.0383 35.2536H21.4243C20.9746 35.2536 20.6096 34.9464 20.6096 34.5678V18.0573C20.6096 17.6787 20.9746 17.3715 21.4243 17.3715ZM22.2391 33.882H40.2236V18.7432H22.2391V33.882ZM38.1865 0.708758C38.1865 0.330134 38.5515 0.0229492 39.0013 0.0229492C39.4511 0.0229492 39.816 0.330134 39.816 0.708758V2.53758H40.0876C40.5374 2.53758 40.9023 2.84476 40.9023 3.22339V5.96662H41.0381C41.4879 5.96662 41.8528 6.27381 41.8528 6.65243V12.3675C41.8528 12.7461 41.4879 13.0533 41.0381 13.0533H36.9644C36.5146 13.0533 36.1497 12.7461 36.1497 12.3675V6.65243C36.1497 6.27381 36.5146 5.96662 36.9644 5.96662H37.1002V3.22339C37.1002 2.84476 37.4652 2.53758 37.915 2.53758H38.1865V0.708758ZM40.2234 11.6817V7.33824H40.0876C39.6378 7.33824 39.2729 7.03105 39.2729 6.65243V3.9092H38.7297V6.65243C38.7297 7.03105 38.3648 7.33824 37.915 7.33824H37.7792V11.6817H40.2234ZM31.2313 0.0229492C30.7815 0.0229492 30.4166 0.330134 30.4166 0.708758V2.53758H30.145C29.6952 2.53758 29.3303 2.84476 29.3303 3.22339V5.96662H29.1945C28.7447 5.96662 28.3798 6.27381 28.3798 6.65243V12.3675C28.3798 12.7461 28.7447 13.0533 29.1945 13.0533H33.2682C33.718 13.0533 34.0829 12.7461 34.0829 12.3675V6.65243C34.0829 6.27381 33.718 5.96662 33.2682 5.96662H33.1324V3.22339C33.1324 2.84476 32.7674 2.53758 32.3176 2.53758H32.0461V0.708758C32.0461 0.330134 31.6811 0.0229492 31.2313 0.0229492ZM32.4534 7.33824V11.6817H30.0092V7.33824H30.145C30.5948 7.33824 30.9598 7.03105 30.9598 6.65243V3.9092H31.5029V6.65243C31.5029 7.03105 31.8678 7.33824 32.3176 7.33824H32.4534ZM36.9646 39.5717H41.0383C41.4881 39.5717 41.853 39.8789 41.853 40.2576V45.9727C41.853 46.3513 41.4881 46.6585 41.0383 46.6585H40.9025V49.4018C40.9025 49.7804 40.5376 50.0876 40.0878 50.0876H39.8162V51.9164C39.8162 52.2951 39.4513 52.6023 39.0015 52.6023C38.5517 52.6023 38.1867 52.2951 38.1867 51.9164V50.0876H37.9151C37.4654 50.0876 37.1004 49.7804 37.1004 49.4018V46.6585H36.9646C36.5148 46.6585 36.1499 46.3513 36.1499 45.9727V40.2576C36.1499 39.8789 36.5148 39.5717 36.9646 39.5717ZM40.0878 45.2869H40.2235V40.9434H37.7794V45.2869H37.9151C38.3649 45.2869 38.7299 45.5941 38.7299 45.9727V48.716H39.273V45.9727C39.273 45.5941 39.638 45.2869 40.0878 45.2869ZM23.4612 52.6023C23.911 52.6023 24.2759 52.2951 24.2759 51.9164V50.0876H24.5475C24.9973 50.0876 25.3622 49.7804 25.3622 49.4018V46.6585H25.498C25.9478 46.6585 26.3127 46.3513 26.3127 45.9727V40.2576C26.3127 39.8789 25.9478 39.5717 25.498 39.5717H21.4243C20.9746 39.5717 20.6096 39.8789 20.6096 40.2576V45.9727C20.6096 46.3513 20.9746 46.6585 21.4243 46.6585H21.5601V49.4018C21.5601 49.7804 21.9251 50.0876 22.3749 50.0876H22.6464V51.9164C22.6464 52.2951 23.0114 52.6023 23.4612 52.6023ZM22.2391 45.2869V40.9434H24.6833V45.2869H24.5475C24.0977 45.2869 23.7327 45.5941 23.7327 45.9727V48.716H23.1896V45.9727C23.1896 45.5941 22.8247 45.2869 22.3749 45.2869H22.2391ZM32.0462 51.9164C32.0462 52.2951 31.6812 52.6023 31.2314 52.6023C30.7816 52.6023 30.4167 52.2951 30.4167 51.9164V50.0876H30.1451C29.6953 50.0876 29.3304 49.7804 29.3304 49.4018V46.6585H29.1946C28.7448 46.6585 28.3799 46.3513 28.3799 45.9727V40.2576C28.3799 39.8789 28.7448 39.5717 29.1946 39.5717H33.2683C33.7181 39.5717 34.083 39.8789 34.083 40.2576V45.9727C34.083 46.3513 33.7181 46.6585 33.2683 46.6585H33.1325V49.4018C33.1325 49.7804 32.7675 50.0876 32.3177 50.0876H32.0462V51.9164ZM30.0093 40.9434V45.2869H30.1451C30.5949 45.2869 30.9599 45.5941 30.9599 45.9727V48.716H31.503V45.9727C31.503 45.5941 31.8679 45.2869 32.3177 45.2869H32.4535V40.9434H30.0093ZM54.5865 17.3715H47.7971C47.3474 17.3715 46.9824 17.6787 46.9824 18.0573V21.4862C46.9824 21.8648 47.3474 22.172 47.7971 22.172H54.5865C55.0363 22.172 55.4013 21.8648 55.4013 21.4862V21.3719H58.6602C59.11 21.3719 59.4749 21.0648 59.4749 20.6861V20.4576H61.6475C62.0973 20.4576 62.4622 20.1504 62.4622 19.7718C62.4622 19.3932 62.0973 19.086 61.6475 19.086H59.4749V18.8574C59.4749 18.4788 59.11 18.1716 58.6602 18.1716H55.4013V18.0573C55.4013 17.6787 55.0363 17.3715 54.5865 17.3715ZM57.8455 20.0004H54.5865C54.1367 20.0004 53.7718 20.3075 53.7718 20.6861V20.8004H48.6119V18.7431H53.7718V18.8574C53.7718 19.236 54.1367 19.5432 54.5865 19.5432H57.8455V20.0004ZM47.7971 35.2532C47.3474 35.2532 46.9824 34.946 46.9824 34.5673V31.1382C46.9824 30.7595 47.3474 30.4523 47.7971 30.4523H54.5865C55.0363 30.4523 55.4013 30.7595 55.4013 31.1382V31.2525H58.6602C59.11 31.2525 59.4749 31.5597 59.4749 31.9383V32.1669H61.6475C62.0973 32.1669 62.4622 32.4741 62.4622 32.8527C62.4622 33.2314 62.0973 33.5386 61.6475 33.5386H59.4749V33.7672C59.4749 34.1458 59.11 34.453 58.6602 34.453H55.4013V34.5673C55.4013 34.946 55.0363 35.2532 54.5865 35.2532H47.7971ZM53.7718 31.824H48.6119V33.8815H53.7718V33.7672C53.7718 33.3886 54.1367 33.0814 54.5865 33.0814H57.8455V32.6241H54.5865C54.1367 32.6241 53.7718 32.3169 53.7718 31.9383V31.824ZM46.9824 28.0264C46.9824 28.405 47.3474 28.7122 47.7971 28.7122H54.5865C55.0363 28.7122 55.4013 28.405 55.4013 28.0264V27.9121H58.6602C59.11 27.9121 59.4749 27.6049 59.4749 27.2263V26.9977H61.6475C62.0973 26.9977 62.4622 26.6905 62.4622 26.3119C62.4622 25.9333 62.0973 25.6261 61.6475 25.6261H59.4749V25.3976C59.4749 25.0189 59.11 24.7118 58.6602 24.7118H55.4013V24.5975C55.4013 24.2189 55.0363 23.9117 54.5865 23.9117H47.7971C47.3474 23.9117 46.9824 24.2189 46.9824 24.5975V28.0264ZM48.6119 25.2833H53.7718V25.3976C53.7718 25.7762 54.1367 26.0833 54.5865 26.0833H57.8455V26.5405H54.5865C54.1367 26.5405 53.7718 26.8477 53.7718 27.2263V27.3406H48.6119V25.2833ZM2.98734 33.5386H0.814728C0.36493 33.5386 0 33.2314 0 32.8527C0 32.4741 0.36493 32.1669 0.814728 32.1669H2.98734V31.9383C2.98734 31.5597 3.35227 31.2525 3.80206 31.2525H7.06098V31.1382C7.06098 30.7595 7.42591 30.4523 7.8757 30.4523H14.6651C15.1149 30.4523 15.4798 30.7595 15.4798 31.1382V34.5673C15.4798 34.946 15.1149 35.2532 14.6651 35.2532H7.8757C7.42591 35.2532 7.06098 34.946 7.06098 34.5673V34.453H3.80206C3.35227 34.453 2.98734 34.1458 2.98734 33.7672V33.5386ZM7.8757 32.6241H4.61679V33.0814H7.8757C8.3255 33.0814 8.69043 33.3886 8.69043 33.7672V33.8815H13.8504V31.824H8.69043V31.9383C8.69043 32.3169 8.3255 32.6241 7.8757 32.6241ZM7.8757 22.172H14.6651C15.1149 22.172 15.4798 21.8648 15.4798 21.4862V18.0573C15.4798 17.6787 15.1149 17.3715 14.6651 17.3715H7.8757C7.42591 17.3715 7.06098 17.6787 7.06098 18.0573V18.1716H3.80206C3.35227 18.1716 2.98734 18.4788 2.98734 18.8574V19.086H0.814728C0.36493 19.086 0 19.3932 0 19.7718C0 20.1504 0.36493 20.4576 0.814728 20.4576H2.98734V20.6861C2.98734 21.0648 3.35227 21.3719 3.80206 21.3719H7.06098V21.4862C7.06098 21.8648 7.42591 22.172 7.8757 22.172ZM4.61679 20.0004V19.5432H7.8757C8.3255 19.5432 8.69043 19.236 8.69043 18.8574V18.7431H13.8504V20.8004H8.69043V20.6861C8.69043 20.3075 8.3255 20.0004 7.8757 20.0004H4.61679ZM2.98734 26.9977H0.814728C0.36493 26.9977 0 26.6905 0 26.3119C0 25.9333 0.36493 25.6261 0.814728 25.6261H2.98734V25.3976C2.98734 25.0189 3.35227 24.7118 3.80206 24.7118H7.06098V24.5975C7.06098 24.2189 7.42591 23.9117 7.8757 23.9117H14.6651C15.1149 23.9117 15.4798 24.2189 15.4798 24.5975V28.0264C15.4798 28.405 15.1149 28.7122 14.6651 28.7122H7.8757C7.42591 28.7122 7.06098 28.405 7.06098 28.0264V27.9121H3.80206C3.35227 27.9121 2.98734 27.6049 2.98734 27.2263V26.9977ZM7.8757 26.0833H4.61679V26.5405H7.8757C8.3255 26.5405 8.69043 26.8477 8.69043 27.2263V27.3406H13.8504V25.2833H8.69043V25.3976C8.69043 25.7762 8.3255 26.0833 7.8757 26.0833Z" fill="white"/>
</svg>
