<svg width="15" height="15" viewBox="0 0 15 15" fill="none" xmlns="http://www.w3.org/2000/svg">
<path d="M11.5544 3H1.58847C1.26346 3 1 3.38128 1 3.85162V10.5055C1 10.9759 1.26346 11.3571 1.58847 11.3571H11.5544C11.8794 11.3571 12.1429 10.9759 12.1429 10.5055V3.85162C12.1429 3.38128 11.8794 3 11.5544 3Z" fill="white" stroke="#333333" stroke-width="0.5" stroke-linecap="round" stroke-linejoin="round"/>
<path d="M1 4.85718H12.1429" stroke="#333333" stroke-width="0.5" stroke-linecap="round" stroke-linejoin="round"/>
<path d="M13.3624 3.92847H2.56598C2.21389 3.92847 1.92847 4.30975 1.92847 4.78009V11.434C1.92847 11.9043 2.21389 12.2856 2.56598 12.2856H13.3624C13.7145 12.2856 13.9999 11.9043 13.9999 11.434V4.78009C13.9999 4.30975 13.7145 3.92847 13.3624 3.92847Z" fill="white" stroke="#333333" stroke-width="0.5" stroke-linecap="round" stroke-linejoin="round"/>
<path d="M2.85718 6.71436H13.0715" stroke="#333333" stroke-width="0.5" stroke-linecap="round" stroke-linejoin="round"/>
<path d="M4.71436 8.57153H10.2858" stroke="#333333" stroke-width="0.5" stroke-linecap="round" stroke-linejoin="round"/>
<path d="M4.71436 10.4285H8.42864" stroke="#333333" stroke-width="0.5" stroke-linecap="round" stroke-linejoin="round"/>
<path d="M4.71436 8.57153H10.2858" stroke="#333333" stroke-width="0.5" stroke-linecap="round" stroke-linejoin="round"/>
</svg>
