<svg width="15" height="15" viewBox="0 0 15 15" fill="none" xmlns="http://www.w3.org/2000/svg">
<g clip-path="url(#clip0_224_279)">
<path fill-rule="evenodd" clip-rule="evenodd" d="M11.2 0L0 11.2L2.8 14L3.325 13.475L3.675 13.125L4.025 12.775L4.375 12.425L4.72485 12.0752L4.72492 12.0752L5.07492 11.7252L5.07484 11.7252L5.075 11.725L5.425 11.375L5.775 11.025L6.125 10.675L6.475 10.325L6.82473 9.97527L6.82475 9.97529L7.17471 9.62533L7.17469 9.62531L7.175 9.625L7.525 9.275L7.52508 9.27492L7.52516 9.275L7.87516 8.925L7.87508 8.92492L8.225 8.575L8.22522 8.57522L8.57522 8.22522L8.575 8.225L8.925 7.875L9.275 7.525L9.625 7.175L9.975 6.825L10.325 6.475L10.675 6.125L11.025 5.775L11.0251 5.7749L11.0252 5.77498L11.3752 5.42498L11.3751 5.4249L11.725 5.075L11.7252 5.07484L11.7252 5.07492L12.0752 4.72492L12.0752 4.72485L12.425 4.375L12.775 4.025L13.125 3.675L14 2.8L11.2 0ZM11.7662 4.41586L12.1157 4.06637L11.7247 3.67545L11.7249 3.67531L11.7247 3.67517L12.0747 3.32521L12.0747 3.32526L12.075 3.325L12.4688 3.71875L12.816 3.36604L12.816 3.366L12.075 2.62508L12.0748 2.6248L12.4247 2.27484L12.4249 2.27506L12.425 2.275L13.166 3.01602L13.3815 2.8L11.2 0.618516L0.618516 11.2L2.79727 13.3815L3.01558 13.1664L2.62452 12.7754L2.6248 12.7751L2.97449 12.4254L2.97477 12.4251L2.97481 12.4252L2.975 12.425L3.36875 12.8187L3.71867 12.4688L3.32486 12.075L3.32499 12.0749L3.32486 12.0748L3.67482 11.7248L4.06578 12.1158L4.06577 12.1158L4.06602 12.116L4.41585 11.7662L4.02492 11.3753L4.02494 11.3752L4.02492 11.3752L4.02508 11.3751L4.025 11.375L4.375 11.025L4.76875 11.4187L5.11864 11.0689L5.11593 11.0662L4.72498 10.6752L4.7247 10.6749L5.07466 10.325L5.07494 10.3252L5.07759 10.3279L5.07773 10.3277L5.46875 10.7188L5.81597 10.3661L5.81565 10.3657L5.07473 9.62484L5.42469 9.27488L5.42491 9.27509L5.425 9.275L6.16875 10.0188L6.51848 9.66902L6.12482 9.27536L6.12496 9.27523L6.12482 9.27509L6.47478 8.92512L6.47756 8.92791L6.47773 8.92773L6.86875 9.31875L7.21875 8.96875L6.825 8.575L6.82507 8.57493L6.82488 8.57475L7.17484 8.22478L7.17511 8.22505L7.17516 8.225L7.5661 8.61594L7.91602 8.26602L7.91563 8.26563L7.91561 8.26564L7.52466 7.87469L7.87462 7.52472L7.87495 7.52505L7.875 7.525L7.87522 7.52522L8.26875 7.91875L8.61838 7.56912L8.61567 7.56642L8.22472 7.17547L8.22444 7.17519L8.5744 6.82522L8.57468 6.8255L8.57732 6.82815L8.57773 6.82773L8.96875 7.21875L9.31584 6.86619L8.57475 6.1251L8.57489 6.12496L8.57475 6.12482L8.92471 5.77486L8.92493 5.77507L8.925 5.775L9.66875 6.51875L10.0188 6.16875L10.0159 6.16591L10.0158 6.16602L9.62484 5.77507L9.62498 5.77493L9.62484 5.77479L9.9748 5.42483L9.97772 5.42775L9.97773 5.42773L10.3688 5.81875L10.7188 5.46875L10.325 5.075L10.3251 5.07492L10.3249 5.07473L10.6749 4.72477L10.6751 4.72503L10.6752 4.72498L11.0661 5.11592L11.416 4.76602L11.4158 4.76577L11.4156 4.7659L11.0247 4.37495L11.3746 4.02499L11.3748 4.02518L11.375 4.025L11.3751 4.02508L11.3752 4.02492L11.7662 4.41586Z" fill="#424242"/>
</g>
<defs>
<clipPath id="clip0_224_279">
<rect width="15" height="15" fill="white"/>
</clipPath>
</defs>
</svg>
