<svg width="17" height="15" viewBox="0 0 17 15" fill="none" xmlns="http://www.w3.org/2000/svg">
<path fill-rule="evenodd" clip-rule="evenodd" d="M15.8144 8.61749L15.3802 6.88075C15.4989 6.85554 15.588 6.75022 15.588 6.62405V6.34403C15.588 5.73605 15.0934 5.24144 14.4854 5.24144H12.5078V4.66388C12.5078 4.3647 12.2644 4.12133 11.9652 4.12133H8.28792L10.5226 3.22746C10.6572 3.17363 10.7227 3.02083 10.6688 2.88621C10.615 2.75162 10.4623 2.68609 10.3276 2.73996L8.49786 3.47182C9.05541 3.11409 9.60704 2.72038 9.81704 2.44504C10.2259 1.909 10.1223 1.1403 9.58631 0.731455C9.05027 0.322576 8.28157 0.426155 7.87272 0.96219C7.574 1.35391 7.17986 2.45457 6.92476 3.23018C6.66966 2.45464 6.27552 1.35391 5.9768 0.96219C5.56799 0.426155 4.79925 0.322641 4.26322 0.731455C3.72718 1.14027 3.62367 1.90897 4.03248 2.44504C4.24249 2.72041 4.79408 3.11409 5.35166 3.47182L3.52196 2.73996C3.38727 2.68603 3.23453 2.75158 3.1807 2.88621C3.12683 3.02083 3.19232 3.17363 3.32695 3.22746L5.5616 4.12133H1.88431C1.58513 4.12133 1.34176 4.3647 1.34176 4.66388V9.42431C1.34176 9.56928 1.45929 9.68684 1.60429 9.68684C1.74926 9.68684 1.86682 9.56931 1.86682 9.42431V4.66388C1.86682 4.65422 1.87465 4.64639 1.88431 4.64639H11.9652C11.9748 4.64639 11.9827 4.65422 11.9827 4.66388V9.42438C11.9827 9.56935 12.1002 9.68691 12.2452 9.68691C12.3902 9.68691 12.5077 9.56938 12.5077 9.42438V9.12677H15.6045L15.6053 9.12684L15.6062 9.1268C15.9872 9.1271 16.3107 9.37722 16.4218 9.72185H15.6055C15.4605 9.72185 15.343 9.83938 15.343 9.98438V10.5444C15.343 10.998 15.712 11.367 16.1655 11.367H16.4631V12.5221H15.7766C15.5511 11.871 14.9322 11.402 14.2054 11.402C13.4786 11.402 12.8596 11.871 12.6341 12.5221H12.5077V10.5444C12.5077 10.3994 12.3902 10.2819 12.2452 10.2819C12.1002 10.2819 11.9826 10.3994 11.9826 10.5444V12.522H6.53586C6.31036 11.871 5.69141 11.4019 4.96459 11.4019C4.23777 11.4019 3.61879 11.8709 3.39333 12.522H1.88431C1.87465 12.522 1.86682 12.5142 1.86682 12.5046V11.927H3.00442C3.14939 11.927 3.26695 11.8095 3.26695 11.6645C3.26695 11.5195 3.14943 11.4019 3.00442 11.4019H0.484212C0.339241 11.4019 0.22168 11.5195 0.22168 11.6645C0.22168 11.8095 0.339209 11.927 0.484212 11.927H1.34179V12.5046C1.34179 12.8037 1.58517 13.0471 1.88434 13.0471H3.30242L3.3022 13.055L3.30196 13.0646C3.30196 13.9814 4.04784 14.7272 4.96459 14.7272C5.88134 14.7272 6.62722 13.9814 6.62722 13.0646L6.62699 13.055L6.62676 13.0471H12.5432L12.5429 13.055L12.5427 13.0646C12.5427 13.9814 13.2886 14.7272 14.2053 14.7272C15.1221 14.7272 15.868 13.9814 15.868 13.0646C15.868 13.0587 15.8676 13.0529 15.8675 13.0471H16.7256C16.8706 13.0471 16.9881 12.9296 16.9881 12.7846V9.98435C16.9881 9.29293 16.478 8.71848 15.8144 8.61749ZM5.88364 3.18545C4.84808 2.54194 4.54091 2.24587 4.44997 2.12661C4.21672 1.82078 4.27579 1.3822 4.58165 1.14895C4.70772 1.0528 4.85633 1.00633 5.00386 1.00633C5.21416 1.00633 5.42223 1.10084 5.55934 1.28062C5.8133 1.61359 6.21101 2.73429 6.47357 3.54187C6.29638 3.43754 6.09269 3.31542 5.88364 3.18545ZM7.37602 3.54184C7.63858 2.73429 8.03629 1.61363 8.29021 1.28059C8.52347 0.974765 8.96205 0.915722 9.26788 1.14895C9.57373 1.3822 9.63278 1.82078 9.39955 2.12661C9.30861 2.24584 9.00145 2.54194 7.96595 3.18542C7.75693 3.31536 7.55324 3.4375 7.37602 3.54184ZM12.5078 5.76644H14.4854C14.8039 5.76644 15.063 6.02553 15.063 6.344V6.36148H12.5078V5.76644ZM12.5078 8.60171V6.88655H14.8405L15.2693 8.60171H12.5078ZM4.96459 14.2022C4.33732 14.2022 3.82699 13.6919 3.82699 13.0646C3.82699 12.4373 4.33732 11.927 4.96459 11.927C5.59186 11.927 6.10219 12.4373 6.10219 13.0646C6.10219 13.6919 5.59186 14.2022 4.96459 14.2022ZM14.2054 14.2022C13.5781 14.2022 13.0678 13.6919 13.0678 13.0646C13.0678 12.4373 13.5781 11.927 14.2054 11.927C14.8327 11.927 15.343 12.4373 15.343 13.0646C15.343 13.6919 14.8327 14.2022 14.2054 14.2022ZM16.4631 10.8419H16.1656C16.0015 10.8419 15.868 10.7084 15.868 10.5444V10.2468H16.4631V10.8419ZM4.96446 12.5221C4.66528 12.5221 4.42191 12.7655 4.42191 13.0647C4.42191 13.3639 4.66528 13.6072 4.96446 13.6072C5.26364 13.6072 5.50701 13.3639 5.50701 13.0647C5.50701 12.7655 5.26364 12.5221 4.96446 12.5221ZM13.6627 13.0647C13.6627 12.7655 13.9061 12.5221 14.2053 12.5221C14.5045 12.5221 14.7478 12.7655 14.7478 13.0647C14.7478 13.3639 14.5045 13.6072 14.2053 13.6072C13.9061 13.6072 13.6627 13.3639 13.6627 13.0647ZM11.125 11.4024H7.20462C7.05965 11.4024 6.94209 11.5199 6.94209 11.6649C6.94209 11.8099 7.05962 11.9275 7.20462 11.9275H11.125C11.2699 11.9275 11.3875 11.8099 11.3875 11.6649C11.3875 11.5199 11.27 11.4024 11.125 11.4024ZM1.04408 10.2822H4.40438C4.54935 10.2822 4.66691 10.3998 4.66691 10.5448C4.66691 10.6898 4.54935 10.8073 4.40438 10.8073H1.04408C0.899072 10.8073 0.781543 10.6898 0.781543 10.5448C0.781543 10.3998 0.899105 10.2822 1.04408 10.2822ZM4.40444 6.36159H3.28433C3.13936 6.36159 3.02179 6.47912 3.02179 6.62412V8.86431C3.02179 9.00928 3.13932 9.12685 3.28433 9.12685C3.42933 9.12685 3.54686 9.00932 3.54686 8.86431V8.00673H4.12442C4.26939 8.00673 4.38695 7.8892 4.38695 7.7442C4.38695 7.5992 4.26942 7.48167 4.12442 7.48167H3.54686V6.88665H4.40444C4.54941 6.88665 4.66697 6.76912 4.66697 6.62412C4.66694 6.47915 4.54941 6.36159 4.40444 6.36159ZM6.90708 7.32419C6.90708 7.66099 6.73306 7.95774 6.47033 8.12983L6.86291 8.71869C6.94337 8.83929 6.91078 9.00231 6.79011 9.0827C6.74538 9.11257 6.69482 9.12685 6.64474 9.12685C6.5599 9.12685 6.47669 9.08578 6.42609 9.0099L5.94399 8.28675H5.50695V8.86431C5.50695 9.00932 5.38942 9.12685 5.24442 9.12685C5.09941 9.12685 4.98188 9.00928 4.98188 8.86431V6.62412C4.98188 6.47912 5.09945 6.36159 5.24442 6.36159H5.94448C6.47528 6.36159 6.90708 6.79339 6.90708 7.32419ZM5.50695 7.76172H5.94448C6.18576 7.76172 6.38202 7.56547 6.38202 7.32419C6.38202 7.08291 6.18576 6.88665 5.94448 6.88665H5.50695V7.76172ZM8.60478 8.60181H7.7472V8.00588L7.75007 8.00608L7.7501 8.00608C7.75493 8.00642 7.75978 8.00677 7.76469 8.00677H8.32473C8.4697 8.00677 8.58726 7.88924 8.58726 7.74423C8.58726 7.59923 8.46973 7.4817 8.32473 7.4817H7.76469C7.75876 7.4817 7.753 7.48219 7.7472 7.48258V6.88665H8.60478C8.74975 6.88665 8.86731 6.76912 8.86731 6.62412C8.86731 6.47915 8.74978 6.36159 8.60478 6.36159H7.48467C7.3397 6.36159 7.22214 6.47912 7.22214 6.62412V8.86431C7.22214 9.00928 7.33966 9.12685 7.48467 9.12685H8.60478C8.74975 9.12685 8.86731 9.00932 8.86731 8.86431C8.86731 8.71931 8.74975 8.60181 8.60478 8.60181ZM9.70741 8.60181H10.565C10.71 8.60181 10.8275 8.71931 10.8275 8.86431C10.8275 9.00932 10.71 9.12685 10.565 9.12685H9.44487C9.29987 9.12685 9.18234 9.00928 9.18234 8.86431V6.62412C9.18234 6.47912 9.2999 6.36159 9.44487 6.36159H10.565C10.71 6.36159 10.8275 6.47915 10.8275 6.62412C10.8275 6.76912 10.71 6.88665 10.565 6.88665H9.70741V7.4817H10.0049C10.15 7.4817 10.2675 7.59923 10.2675 7.74423C10.2675 7.88924 10.1499 8.00677 10.0049 8.00677H9.70741V8.60181Z" fill="#609CB0"/>
</svg>
